Coordinates
version=1
nRows=29
nColumns=24
inDegrees=yes

Units are S.I. units (second, meters, Newtons, ...)
Angles are in degrees.

endheader
time	pelvis_tilt	pelvis_list	pelvis_rotation	pelvis_tx	pelvis_ty	pelvis_tz	hip_flexion_r	hip_adduction_r	hip_rotation_r	knee_angle_r	ankle_angle_r	subtalar_angle_r	mtp_angle_r	hip_flexion_l	hip_adduction_l	hip_rotation_l	knee_angle_l	ankle_angle_l	subtalar_angle_l	mtp_angle_l	lumbar_extension	lumbar_bending	lumbar_rotation
      3.25000000	     -8.10739872	     -6.16247980	      6.15320847	     -1.74408727	     -0.03040534	      0.70581932	     26.90925493	      3.77303294	      0.38691314	    -32.00491444	      4.79131128	     -0.17631313	     17.90104190	     18.02248907	     -5.25293594	      3.43526814	    -64.86049482	    -13.95330383	      8.32292981	     22.87565066	      7.83203821	     13.65794628	     -9.31386154
      3.25500000	     -8.07129691	     -6.24846796	      6.06709950	     -1.73755123	     -0.02929681	      0.70641600	     26.20546971	      4.00351991	      0.47099677	    -31.57810923	      5.20803566	     -0.06581437	     16.81325051	     18.94404168	     -5.31608355	      3.31445058	    -65.60686692	    -14.02180050	      8.63502201	     24.40351166	      7.80278934	     13.77205606	     -9.05191416
      3.26000000	     -8.01735201	     -6.24614138	      5.96779770	     -1.73104856	     -0.02812689	      0.70684368	     25.45499224	      4.11863105	      0.57967342	    -31.07640622	      5.46111471	      0.05954703	     16.82617392	     19.81700103	     -5.26544924	      3.13052092	    -66.31341356	    -13.81270240	      8.73616539	     24.66021347	      7.74045547	     13.81317008	     -8.77063326
      3.26500000	     -7.99832378	     -6.30549191	      5.82161341	     -1.72460165	     -0.02702322	      0.70753686	     24.74382228	      4.35893453	      0.78868160	    -30.55493186	      5.61967149	     -0.11699803	     16.55785871	     20.72482147	     -5.32954096	      2.92603979	    -66.93032918	    -13.73148340	      8.76982539	     25.44897446	      7.70178786	     13.89793855	     -8.47011194
      3.27000000	     -7.95732140	     -6.33400769	      5.72297017	     -1.71806944	     -0.02584261	      0.70797223	     23.97303808	      4.50241561	      0.87557030	    -29.97923766	      5.80580593	     -0.05893775	     16.52750222	     21.58766828	     -5.32525487	      2.73087335	    -67.47734811	    -13.58420498	      8.52841789	     25.62750943	      7.66855997	     13.96511550	     -8.16844241
      3.27500000	     -7.93080458	     -6.36199571	      5.53896560	     -1.71156032	     -0.02468274	      0.70867763	     23.21130839	      4.72546825	      1.14860025	    -29.38641244	      5.90823741	     -0.30301076	     16.27898385	     22.43782175	     -5.38295212	      2.43842685	    -67.93842188	    -13.48185424	      8.15778530	     25.94950539	      7.62069558	     14.02170363	     -7.80185321
      3.28000000	     -7.88598574	     -6.38054748	      5.36920354	     -1.70510611	     -0.02354809	      0.70933634	     22.42885551	      4.92039794	      1.40700865	    -28.79737665	      6.07216125	     -0.41693470	     15.94700192	     23.25669932	     -5.42479610	      2.16853710	    -68.33650104	    -13.32957584	      7.72010739	     26.26762367	      7.54250020	     14.06990073	     -7.43496739
      3.28500000	     -7.86662797	     -6.40806415	      5.22696838	     -1.69858699	     -0.02242740	      0.70989911	     21.65000638	      5.08982141	      1.58517751	    -28.15792085	      6.18731889	     -0.52106494	     15.80098298	     24.09241369	     -5.46239609	      1.91704773	    -68.67061422	    -13.14830017	      7.17324199	     26.35800037	      7.51698601	     14.12376927	     -7.12398918
      3.29000000	     -7.84314695	     -6.38821297	      5.02725470	     -1.69213308	     -0.02130679	      0.71060425	     20.86800496	      5.25574347	      1.91782199	    -27.52704076	      6.23177387	     -0.79688434	     15.51797414	     24.88594488	     -5.48035762	      1.60625442	    -68.92167107	    -12.92834160	      6.55648483	     26.37955106	      7.44565347	     14.12679112	     -6.70540951
      3.29500000	     -7.80625691	     -6.32921510	      4.79402952	     -1.68563471	     -0.02018277	      0.71141090	     20.05189481	      5.40309660	      2.35739302	    -26.88339431	      6.32374298	     -1.06878594	     15.11280883	     25.62743986	     -5.49051323	      1.25528052	    -69.09375234	    -12.64759954	      6.00191281	     26.22261591	      7.35173571	     14.08167640	     -6.29843945
      3.30000000	     -7.75316493	     -6.28758405	      4.53722609	     -1.67915873	     -0.01909903	      0.71219680	     19.22616702	      5.55601492	      2.75904688	    -26.25216753	      6.44432001	     -1.23078395	     14.57180668	     26.33905534	     -5.53976881	      0.87783245	    -69.22812441	    -12.22794041	      5.45593487	     25.66016585	      7.22828059	     14.06495326	     -5.84265217
      3.30500000	     -7.76727957	     -6.25694452	      4.37045136	     -1.67274775	     -0.01813894	      0.71287259	     18.47245649	      5.66906421	      3.05322493	    -25.59381969	      6.50352292	     -1.45712733	     14.39728892	     27.14383014	     -5.54784919	      0.60453189	    -69.28430772	    -12.05603306	      4.72661243	     25.45879468	      7.19287251	     14.03212492	     -5.53635663
      3.31000000	     -7.67798780	     -6.15084386	      4.05543844	     -1.66633576	     -0.01709409	      0.71374546	     17.61054705	      5.77429583	      3.58341542	    -24.97648445	      6.60211489	     -1.70321665	     13.80220541	     27.76460260	     -5.57562721	      0.14979978	    -69.31268911	    -11.38048045	      4.24617210	     24.00852969	      6.98642618	     13.94958780	     -4.98493594
      3.31500000	     -7.70735687	     -5.99879984	      3.78532712	     -1.65994493	     -0.01617437	      0.71458389	     16.87941687	      5.79321517	      4.06713393	    -24.35543646	      6.63972433	     -2.01135777	     13.49153418	     28.50131921	     -5.51859985	     -0.24172298	    -69.21481384	    -11.07920573	      3.61120607	     23.25034772	      6.91934389	     13.79056463	     -4.52930130
      3.32000000	     -7.64932679	     -5.91614298	      3.51659625	     -1.65355711	     -0.01528608	      0.71535653	     16.05920180	      5.87077423	      4.48783213	    -23.73698687	      6.73429882	     -2.20180892	     12.97677442	     29.14721270	     -5.55794745	     -0.64343864	    -69.12595340	    -10.45032340	      3.05422813	     21.64234500	      6.75911437	     13.71761811	     -4.11435294
      3.32500000	     -7.70944391	     -5.76425635	      3.29595421	     -1.64722194	     -0.01452066	      0.71610597	     15.37867883	      5.84518806	      4.85239856	    -23.12796147	      6.73279348	     -2.53093052	     12.76400345	     29.89581611	     -5.48554566	     -0.97880170	    -68.87576821	    -10.30202192	      2.32595754	     21.20371221	      6.72937682	     13.54217392	     -3.75961290
      3.33000000	     -7.63198990	     -5.61985022	      3.00418640	     -1.64081043	     -0.01369532	      0.71689284	     14.53204203	      5.85458421	      5.37926860	    -22.52104722	      6.84955197	     -2.72244104	     12.10230930	     30.46678938	     -5.48407163	     -1.40202818	    -68.67551956	     -9.44814242	      1.99096310	     18.90164747	      6.53880911	     13.39730682	     -3.35063479
      3.33500000	     -7.70990881	     -5.44284480	      2.71317298	     -1.63457305	     -0.01311776	      0.71770883	     13.90383350	      5.80237550	      5.81984363	    -21.96749165	      6.88896414	     -2.99280254	     11.93355579	     31.19243664	     -5.43377555	     -1.77898206	    -68.30789904	     -9.27120581	      1.38231910	     18.49788316	      6.48857009	     13.20019083	     -2.90587588
      3.34000000	     -7.64035350	     -5.27588588	      2.43107154	     -1.62825748	     -0.01246947	      0.71847786	     13.09072326	      5.76683648	      6.35616498	    -21.39755018	      7.02489572	     -3.20437730	     11.32688963	     31.74309738	     -5.40444050	     -2.14577046	    -67.98462846	     -8.42426011	      1.19721980	     16.39424899	      6.28799452	     13.01841855	     -2.50581200
      3.34500000	     -7.67680805	     -5.11803506	      2.08688170	     -1.62200364	     -0.01200353	      0.71931228	     12.42615724	      5.72824273	      6.86477449	    -20.86145892	      7.09607790	     -3.37607247	     11.07049076	     32.38188466	     -5.43036563	     -2.55632106	    -67.53177310	     -8.03739897	      0.83790267	     15.63000860	      6.18618746	     12.85028495	     -2.05405150
      3.35000000	     -7.70753771	     -4.94973445	      1.80180169	     -1.61577830	     -0.01160405	      0.72004717	     11.75895508	      5.65697604	      7.34339277	    -20.32917794	      7.17211315	     -3.58416475	     10.78175556	     33.00939776	     -5.40505765	     -2.89285778	    -67.02181385	     -7.68259017	      0.49434325	     14.86310045	      6.08523961	     12.66033547	     -1.67417706
      3.35500000	     -7.80268398	     -4.74145428	      1.61065656	     -1.60951237	     -0.01134575	      0.72063109	     11.17043830	      5.50093765	      7.66819654	    -19.81023190	      7.26868534	     -3.76759813	     10.63739389	     33.69209432	     -5.26589262	     -3.08740370	    -66.43281537	     -7.42897460	      0.33709141	     14.56341233	      6.08705047	     12.41247633	     -1.43772879
      3.36000000	     -7.72362788	     -4.60941023	      1.32495323	     -1.60327541	     -0.01102411	      0.72136149	     10.39589744	      5.46548893	      8.17594152	    -19.31096645	      7.39580392	     -3.96697001	      9.93427615	     34.17439462	     -5.29624498	     -3.39564471	    -65.89938093	     -6.57521535	      0.33784286	     12.67353217	      5.86351926	     12.25293124	     -1.02594861
      3.36500000	     -7.85393015	     -4.43888639	      1.08972111	     -1.59707912	     -0.01101311	      0.72193679	      9.88678117	      5.33642144	      8.50833504	    -18.85349914	      7.52662601	     -4.03144527	      9.89623323	     34.87199920	     -5.22863807	     -3.60405400	    -65.22419288	     -6.38889403	      0.14738267	     12.53106869	      5.88692255	     12.05301912	     -0.76075670
      3.37000000	     -7.92212666	     -4.26009728	      0.81792221	     -1.59087968	     -0.01099396	      0.72261742	      9.31393902	      5.21616628	      8.92559607	    -18.40369854	      7.61508739	     -4.20571358	      9.78974389	     35.46634216	     -5.19155855	     -3.84041781	    -64.49317617	     -6.13750537	      0.02809996	     12.28683925	      5.82919166	     11.83599907	     -0.41259576
      3.37500000	     -7.85722207	     -4.16922773	      0.52755361	     -1.58473474	     -0.01095906	      0.72329911	      8.59656574	      5.19776465	      9.40801007	    -17.94925493	      7.67763374	     -4.45437258	      9.47787415	     35.91711087	     -5.27034919	     -4.07818450	    -63.77567986	     -5.63805693	     -0.05038682	     11.42429459	      5.60875611	     11.72021361	     -0.02877881
      3.38000000	     -7.94564282	     -4.00317014	      0.29869751	     -1.57853319	     -0.01111037	      0.72385179	      8.06830099	      5.06195090	      9.72051707	    -17.53486310	      7.78574218	     -4.57957567	      9.34090030	     36.50990076	     -5.20878174	     -4.23483527	    -62.96810629	     -5.36740324	     -0.15184420	     10.90377149	      5.58365290	     11.51830555	      0.28011616
      3.38500000	     -8.03683661	     -3.89729948	      0.17491008	     -1.57231895	     -0.01142249	      0.72428936	      7.54081232	      4.96695533	      9.92164209	    -17.11614047	      7.93310287	     -4.66969727	      9.30276966	     37.11465699	     -5.13835218	     -4.23049188	    -62.12858305	     -5.13770079	     -0.18190545	     10.75757196	      5.58762099	     11.35240778	      0.41079561
      3.39000000	     -7.98227084	     -3.78601332	     -0.10546637	     -1.56618699	     -0.01160142	      0.72491333	      6.85867981	      4.90379928	     10.39681796	    -16.69993669	      8.00469735	     -4.94103924	      9.09754530	     37.51129821	     -5.18189439	     -4.41573688	    -61.25376428	     -4.75115178	     -0.31248621	      9.96294998	      5.37402124	     11.21056058	      0.78736777
